<svg xmlns="http://www.w3.org/2000/svg" viewBox="0 0 100 100" fill="none">
  <defs>
    <linearGradient id="gLeft" x1="0%" y1="0%" x2="100%" y2="100%">
      <stop offset="0%" stop-color="#8b5cf6" />
      <stop offset="100%" stop-color="#4f46e5" />
    </linearGradient>
    <linearGradient id="gRight" x1="0%" y1="0%" x2="100%" y2="100%">
      <stop offset="0%" stop-color="#4f46e5" />
      <stop offset="100%" stop-color="#ec4899" />
    </linearGradient>
    <linearGradient id="gTop" x1="0%" y1="0%" x2="100%" y2="100%">
      <stop offset="0%" stop-color="#a78bfa" />
      <stop offset="100%" stop-color="#8b5cf6" />
    </linearGradient>
  </defs>
  <path d="M 50 15 L 18 33.5 L 18 70.5 L 50 52 L 50 15 Z" fill="url(#gLeft)" opacity="0.95" />
  <path d="M 50 52 L 82 70.5 L 82 33.5 L 50 15 L 50 52 Z" fill="url(#gRight)" opacity="0.95" />
  <path d="M 50 52 L 18 70.5 L 50 89 L 82 70.5 L 50 52 Z" fill="url(#gTop)" opacity="0.85" />
  <path d="M 32 41.5 L 50 32 M 50 32 L 68 41.5 M 50 52 L 50 72.5" stroke="white" stroke-width="3.5" stroke-linecap="round" stroke-linejoin="round" opacity="0.9" />
  <circle cx="50" cy="32" r="2.5" fill="white" />
  <circle cx="32" cy="41.5" r="2.5" fill="white" />
  <circle cx="68" cy="41.5" r="2.5" fill="white" />
  <circle cx="50" cy="72.5" r="2.5" fill="white" />
</svg>
